<?xml version="1.0" encoding="UTF-8"?>
<svg xmlns="http://www.w3.org/2000/svg" xmlns:xlink="http://www.w3.org/1999/xlink" width="37.5pt" height="37.499999pt" viewBox="0 0 37.5 37.499999" version="1.2">
<defs>
<clipPath id="clip1">
  <path d="M 0 0 L 37.007812 0 L 37.007812 37.007812 L 0 37.007812 Z M 0 0 "/>
</clipPath>
<clipPath id="clip2">
  <path d="M 18.328125 -10.953125 L 48.554688 19.277344 L 18.855469 48.972656 L -11.371094 18.746094 Z M 18.328125 -10.953125 "/>
</clipPath>
<clipPath id="clip3">
  <path d="M 18.328125 -10.953125 L 48.554688 19.277344 L 18.855469 48.972656 L -11.371094 18.746094 Z M 18.328125 -10.953125 "/>
</clipPath>
</defs>
<g id="surface1">
<g clip-path="url(#clip1)" clip-rule="nonzero">
<g clip-path="url(#clip2)" clip-rule="nonzero">
<g clip-path="url(#clip3)" clip-rule="nonzero">
<path style=" stroke:none;fill-rule:nonzero;fill:rgb(32.159424%,44.309998%,100%);fill-opacity:1;" d="M 37.71875 29.472656 L 27.328125 19.082031 L 37.539062 8.871094 L 28.742188 0.0742188 L 18.53125 10.285156 L 8.140625 -0.105469 L -0.511719 8.550781 L 9.875 18.941406 L -0.34375 29.160156 L 8.453125 37.957031 L 18.671875 27.738281 L 29.0625 38.125 L 37.71875 29.472656 "/>
<path style=" stroke:none;fill-rule:nonzero;fill:rgb(100%,100%,100%);fill-opacity:1;" d="M 37.71875 29.472656 L 38.023438 29.164062 L 27.949219 19.085938 L 37.851562 9.183594 C 37.933594 9.101562 37.980469 8.992188 37.976562 8.875 C 37.976562 8.757812 37.929688 8.644531 37.847656 8.5625 L 29.050781 -0.234375 C 28.96875 -0.316406 28.851562 -0.363281 28.738281 -0.367188 C 28.621094 -0.367188 28.507812 -0.320312 28.425781 -0.238281 L 18.523438 9.664062 L 8.449219 -0.414062 C 8.367188 -0.496094 8.253906 -0.542969 8.136719 -0.542969 C 8.023438 -0.542969 7.910156 -0.5 7.828125 -0.417969 L -0.828125 8.238281 C -0.90625 8.320312 -0.953125 8.429688 -0.953125 8.546875 C -0.953125 8.664062 -0.902344 8.777344 -0.820312 8.859375 L 9.253906 18.933594 L -0.65625 28.847656 C -0.738281 28.925781 -0.785156 29.039062 -0.785156 29.15625 C -0.78125 29.273438 -0.734375 29.386719 -0.652344 29.46875 L 8.144531 38.265625 C 8.226562 38.347656 8.339844 38.394531 8.457031 38.394531 C 8.570312 38.398438 8.683594 38.351562 8.765625 38.269531 L 18.675781 28.359375 L 28.753906 38.433594 C 28.835938 38.519531 28.949219 38.566406 29.066406 38.566406 C 29.183594 38.566406 29.292969 38.519531 29.375 38.441406 L 38.03125 29.785156 C 38.113281 29.703125 38.15625 29.589844 38.15625 29.476562 C 38.15625 29.359375 38.109375 29.246094 38.023438 29.164062 L 37.71875 29.472656 L 37.402344 29.15625 L 29.058594 37.503906 L 18.980469 27.429688 C 18.898438 27.34375 18.785156 27.296875 18.667969 27.296875 C 18.554688 27.296875 18.441406 27.339844 18.359375 27.421875 L 8.445312 37.335938 L 0.277344 29.164062 L 10.191406 19.253906 C 10.269531 19.171875 10.316406 19.058594 10.316406 18.941406 C 10.316406 18.828125 10.265625 18.714844 10.183594 18.632812 L 0.109375 8.554688 L 8.144531 0.519531 L 18.222656 10.59375 C 18.304688 10.675781 18.417969 10.722656 18.535156 10.726562 C 18.648438 10.726562 18.761719 10.679688 18.84375 10.597656 L 28.746094 0.695312 L 36.914062 8.867188 L 27.011719 18.769531 C 26.933594 18.847656 26.886719 18.960938 26.886719 19.078125 C 26.886719 19.195312 26.9375 19.308594 27.019531 19.390625 L 37.410156 29.78125 L 37.71875 29.472656 L 37.402344 29.15625 L 37.71875 29.472656 "/>
</g>
</g>
</g>
</g>
</svg>
