<?xml version="1.0" encoding="UTF-8"?>
<svg xmlns="http://www.w3.org/2000/svg" xmlns:xlink="http://www.w3.org/1999/xlink" width="37.5pt" height="37.499999pt" viewBox="0 0 37.5 37.499999" version="1.2">
<defs>
<clipPath id="clip1">
  <path d="M 0.710938 0.710938 L 36.710938 0.710938 L 36.710938 12 L 0.710938 12 Z M 0.710938 0.710938 "/>
</clipPath>
<clipPath id="clip2">
  <path d="M 0.710938 13 L 36.710938 13 L 36.710938 25 L 0.710938 25 Z M 0.710938 13 "/>
</clipPath>
<clipPath id="clip3">
  <path d="M 0.710938 26 L 36.710938 26 L 36.710938 36.710938 L 0.710938 36.710938 Z M 0.710938 26 "/>
</clipPath>
</defs>
<g id="surface1">
<g clip-path="url(#clip1)" clip-rule="nonzero">
<path style=" stroke:none;fill-rule:nonzero;fill:rgb(32.159424%,44.309998%,100%);fill-opacity:1;" d="M 31.398438 0.710938 L 6.027344 0.710938 C 3.101562 0.710938 0.710938 3.101562 0.710938 6.027344 C 0.710938 8.957031 3.101562 11.34375 6.027344 11.34375 L 31.398438 11.34375 C 34.324219 11.34375 36.710938 8.957031 36.710938 6.027344 C 36.710938 3.101562 34.324219 0.710938 31.398438 0.710938 Z M 31.398438 0.710938 "/>
</g>
<g clip-path="url(#clip2)" clip-rule="nonzero">
<path style=" stroke:none;fill-rule:nonzero;fill:rgb(32.159424%,44.309998%,100%);fill-opacity:1;" d="M 31.398438 13.398438 L 6.027344 13.398438 C 3.101562 13.398438 0.710938 15.785156 0.710938 18.710938 C 0.710938 21.640625 3.101562 24.027344 6.027344 24.027344 L 31.398438 24.027344 C 34.324219 24.027344 36.710938 21.640625 36.710938 18.710938 C 36.710938 15.785156 34.324219 13.398438 31.398438 13.398438 Z M 31.398438 13.398438 "/>
</g>
<g clip-path="url(#clip3)" clip-rule="nonzero">
<path style=" stroke:none;fill-rule:nonzero;fill:rgb(32.159424%,44.309998%,100%);fill-opacity:1;" d="M 31.398438 26.082031 L 6.027344 26.082031 C 3.101562 26.082031 0.710938 28.46875 0.710938 31.398438 C 0.710938 34.324219 3.101562 36.710938 6.027344 36.710938 L 31.398438 36.710938 C 34.324219 36.710938 36.710938 34.324219 36.710938 31.398438 C 36.710938 28.46875 34.324219 26.082031 31.398438 26.082031 Z M 31.398438 26.082031 "/>
</g>
</g>
</svg>
